<svg width="144" height="88" viewBox="0 0 144 88" fill="none" xmlns="http://www.w3.org/2000/svg">
<path d="M132.316 24.1008C133.22 26.9234 132.525 30.1786 130.358 33.6969C128.193 37.2132 124.59 40.9325 119.805 44.6297C110.239 52.0213 96.0354 59.2559 79.4615 64.5611C62.8876 69.8663 47.1231 72.2243 35.0426 71.7618C29.0001 71.5304 23.9075 70.5943 20.1026 68.9891C16.2956 67.3829 13.8399 65.1362 12.9363 62.3135C12.0328 59.4908 12.7274 56.2356 14.8941 52.7174C17.0596 49.201 20.6621 45.4817 25.447 41.7845C35.0135 34.3929 49.217 27.1584 65.7909 21.8531C82.3648 16.5479 98.1293 14.1899 110.21 14.6525C116.252 14.8838 121.345 15.8199 125.15 17.4252C128.957 19.0313 131.413 21.2781 132.316 24.1008Z" stroke="#030F26"/>
<ellipse cx="72.1732" cy="43.9213" rx="63.1732" ry="22.9213" fill="#030F26"/>
<path d="M31.996 48.168C30.972 48.168 30.16 47.88 29.56 47.304C28.96 46.72 28.66 45.88 28.66 44.784V42.816C28.66 41.72 28.96 40.884 29.56 40.308C30.16 39.724 30.972 39.432 31.996 39.432C33.004 39.432 33.78 39.712 34.324 40.272C34.876 40.832 35.152 41.596 35.152 42.564V42.636H33.868V42.528C33.868 41.96 33.712 41.496 33.4 41.136C33.096 40.776 32.628 40.596 31.996 40.596C31.356 40.596 30.856 40.792 30.496 41.184C30.136 41.568 29.956 42.104 29.956 42.792V44.808C29.956 45.488 30.136 46.024 30.496 46.416C30.856 46.808 31.356 47.004 31.996 47.004C32.628 47.004 33.096 46.824 33.4 46.464C33.712 46.096 33.868 45.632 33.868 45.072V44.868H35.152V45.036C35.152 46.004 34.876 46.768 34.324 47.328C33.78 47.888 33.004 48.168 31.996 48.168ZM39.3949 48.168C38.8029 48.168 38.2749 48.048 37.8109 47.808C37.3549 47.56 36.9949 47.208 36.7309 46.752C36.4669 46.296 36.3349 45.756 36.3349 45.132V44.952C36.3349 44.328 36.4669 43.792 36.7309 43.344C36.9949 42.888 37.3549 42.536 37.8109 42.288C38.2749 42.04 38.8029 41.916 39.3949 41.916C39.9869 41.916 40.5149 42.04 40.9789 42.288C41.4429 42.536 41.8069 42.888 42.0709 43.344C42.3349 43.792 42.4669 44.328 42.4669 44.952V45.132C42.4669 45.756 42.3349 46.296 42.0709 46.752C41.8069 47.208 41.4429 47.56 40.9789 47.808C40.5149 48.048 39.9869 48.168 39.3949 48.168ZM39.3949 47.064C39.9389 47.064 40.3789 46.892 40.7149 46.548C41.0589 46.196 41.2309 45.712 41.2309 45.096V44.988C41.2309 44.372 41.0629 43.892 40.7269 43.548C40.3909 43.196 39.9469 43.02 39.3949 43.02C38.8589 43.02 38.4189 43.196 38.0749 43.548C37.7389 43.892 37.5709 44.372 37.5709 44.988V45.096C37.5709 45.712 37.7389 46.196 38.0749 46.548C38.4189 46.892 38.8589 47.064 39.3949 47.064ZM44.0058 48V42.084H45.2178V42.972H45.4098C45.5218 42.732 45.7218 42.508 46.0098 42.3C46.2978 42.092 46.7258 41.988 47.2938 41.988C47.7418 41.988 48.1378 42.088 48.4818 42.288C48.8338 42.488 49.1098 42.772 49.3098 43.14C49.5098 43.5 49.6098 43.936 49.6098 44.448V48H48.3738V44.544C48.3738 44.032 48.2458 43.656 47.9898 43.416C47.7338 43.168 47.3818 43.044 46.9338 43.044C46.4218 43.044 46.0098 43.212 45.6978 43.548C45.3938 43.884 45.2418 44.372 45.2418 45.012V48H44.0058ZM51.3886 48V42.084H52.6006V42.972H52.7926C52.9046 42.732 53.1046 42.508 53.3926 42.3C53.6806 42.092 54.1086 41.988 54.6766 41.988C55.1246 41.988 55.5206 42.088 55.8646 42.288C56.2166 42.488 56.4926 42.772 56.6926 43.14C56.8926 43.5 56.9926 43.936 56.9926 44.448V48H55.7566V44.544C55.7566 44.032 55.6286 43.656 55.3726 43.416C55.1166 43.168 54.7646 43.044 54.3166 43.044C53.8046 43.044 53.3926 43.212 53.0806 43.548C52.7766 43.884 52.6246 44.372 52.6246 45.012V48H51.3886ZM61.4834 48.168C60.8834 48.168 60.3594 48.044 59.9114 47.796C59.4634 47.54 59.1114 47.184 58.8554 46.728C58.6074 46.264 58.4834 45.728 58.4834 45.12V44.976C58.4834 44.36 58.6074 43.824 58.8554 43.368C59.1034 42.904 59.4474 42.548 59.8874 42.3C60.3354 42.044 60.8514 41.916 61.4354 41.916C62.0034 41.916 62.4994 42.044 62.9234 42.3C63.3554 42.548 63.6914 42.896 63.9314 43.344C64.1714 43.792 64.2914 44.316 64.2914 44.916V45.384H59.7434C59.7594 45.904 59.9314 46.32 60.2594 46.632C60.5954 46.936 61.0114 47.088 61.5074 47.088C61.9714 47.088 62.3194 46.984 62.5514 46.776C62.7914 46.568 62.9754 46.328 63.1034 46.056L64.1234 46.584C64.0114 46.808 63.8474 47.044 63.6314 47.292C63.4234 47.54 63.1474 47.748 62.8034 47.916C62.4594 48.084 62.0194 48.168 61.4834 48.168ZM59.7554 44.436H63.0314C62.9994 43.988 62.8394 43.64 62.5514 43.392C62.2634 43.136 61.8874 43.008 61.4234 43.008C60.9594 43.008 60.5794 43.136 60.2834 43.392C59.9954 43.64 59.8194 43.988 59.7554 44.436ZM68.5272 48.168C67.9592 48.168 67.4432 48.048 66.9792 47.808C66.5232 47.568 66.1592 47.22 65.8872 46.764C65.6232 46.308 65.4912 45.76 65.4912 45.12V44.964C65.4912 44.324 65.6232 43.78 65.8872 43.332C66.1592 42.876 66.5232 42.528 66.9792 42.288C67.4432 42.04 67.9592 41.916 68.5272 41.916C69.0952 41.916 69.5792 42.02 69.9792 42.228C70.3792 42.436 70.6992 42.712 70.9392 43.056C71.1872 43.4 71.3472 43.78 71.4192 44.196L70.2192 44.448C70.1792 44.184 70.0952 43.944 69.9672 43.728C69.8392 43.512 69.6592 43.34 69.4272 43.212C69.1952 43.084 68.9032 43.02 68.5512 43.02C68.2072 43.02 67.8952 43.1 67.6152 43.26C67.3432 43.412 67.1272 43.636 66.9672 43.932C66.8072 44.22 66.7272 44.572 66.7272 44.988V45.096C66.7272 45.512 66.8072 45.868 66.9672 46.164C67.1272 46.46 67.3432 46.684 67.6152 46.836C67.8952 46.988 68.2072 47.064 68.5512 47.064C69.0712 47.064 69.4672 46.932 69.7392 46.668C70.0112 46.396 70.1832 46.052 70.2552 45.636L71.4552 45.912C71.3592 46.32 71.1872 46.696 70.9392 47.04C70.6992 47.384 70.3792 47.66 69.9792 47.868C69.5792 48.068 69.0952 48.168 68.5272 48.168ZM74.8898 48C74.5298 48 74.2418 47.892 74.0258 47.676C73.8178 47.46 73.7138 47.172 73.7138 46.812V43.128H72.0818V42.084H73.7138V40.128H74.9498V42.084H76.7138V43.128H74.9498V46.596C74.9498 46.836 75.0618 46.956 75.2858 46.956H76.5218V48H74.8898ZM81.8725 48L80.8645 42.084H82.1005L82.8445 47.172H83.0365L84.0685 42.084H86.0725L87.0925 47.172H87.2845L88.0285 42.084H89.2645L88.2565 48H86.1805L85.1605 42.924H84.9685L83.9485 48H81.8725ZM92.5175 48.168C92.0935 48.168 91.7135 48.096 91.3775 47.952C91.0495 47.808 90.7855 47.596 90.5855 47.316C90.3935 47.036 90.2975 46.696 90.2975 46.296C90.2975 45.888 90.3935 45.552 90.5855 45.288C90.7855 45.016 91.0535 44.812 91.3895 44.676C91.7335 44.54 92.1215 44.472 92.5535 44.472H94.3535V44.088C94.3535 43.744 94.2495 43.468 94.0415 43.26C93.8335 43.052 93.5135 42.948 93.0815 42.948C92.6575 42.948 92.3335 43.048 92.1095 43.248C91.8855 43.448 91.7375 43.708 91.6655 44.028L90.5135 43.656C90.6095 43.336 90.7615 43.048 90.9695 42.792C91.1855 42.528 91.4695 42.316 91.8215 42.156C92.1735 41.996 92.5975 41.916 93.0935 41.916C93.8615 41.916 94.4655 42.112 94.9055 42.504C95.3455 42.896 95.5655 43.452 95.5655 44.172V46.608C95.5655 46.848 95.6775 46.968 95.9015 46.968H96.4055V48H95.4815C95.2015 48 94.9735 47.928 94.7975 47.784C94.6215 47.64 94.5335 47.444 94.5335 47.196V47.16H94.3535C94.2895 47.28 94.1935 47.42 94.0655 47.58C93.9375 47.74 93.7495 47.88 93.5015 48C93.2535 48.112 92.9255 48.168 92.5175 48.168ZM92.6975 47.148C93.1935 47.148 93.5935 47.008 93.8975 46.728C94.2015 46.44 94.3535 46.048 94.3535 45.552V45.432H92.6255C92.2975 45.432 92.0335 45.504 91.8335 45.648C91.6335 45.784 91.5335 45.988 91.5335 46.26C91.5335 46.532 91.6375 46.748 91.8455 46.908C92.0535 47.068 92.3375 47.148 92.6975 47.148ZM97.6073 48V39.6H98.8433V48H97.6073ZM100.678 48V39.6H101.914V48H100.678ZM106.46 48.168C105.86 48.168 105.336 48.044 104.888 47.796C104.44 47.54 104.088 47.184 103.832 46.728C103.584 46.264 103.46 45.728 103.46 45.12V44.976C103.46 44.36 103.584 43.824 103.832 43.368C104.08 42.904 104.424 42.548 104.864 42.3C105.312 42.044 105.828 41.916 106.412 41.916C106.98 41.916 107.476 42.044 107.9 42.3C108.332 42.548 108.668 42.896 108.908 43.344C109.148 43.792 109.268 44.316 109.268 44.916V45.384H104.72C104.736 45.904 104.908 46.32 105.236 46.632C105.572 46.936 105.988 47.088 106.484 47.088C106.948 47.088 107.296 46.984 107.528 46.776C107.768 46.568 107.952 46.328 108.08 46.056L109.1 46.584C108.988 46.808 108.824 47.044 108.608 47.292C108.4 47.54 108.124 47.748 107.78 47.916C107.436 48.084 106.996 48.168 106.46 48.168ZM104.732 44.436H108.008C107.976 43.988 107.816 43.64 107.528 43.392C107.24 43.136 106.864 43.008 106.4 43.008C105.936 43.008 105.556 43.136 105.26 43.392C104.972 43.64 104.796 43.988 104.732 44.436ZM112.765 48C112.405 48 112.117 47.892 111.901 47.676C111.693 47.46 111.589 47.172 111.589 46.812V43.128H109.957V42.084H111.589V40.128H112.825V42.084H114.589V43.128H112.825V46.596C112.825 46.836 112.937 46.956 113.161 46.956H114.397V48H112.765Z" fill="white"/>
<path d="M122.874 4.91333L123.992 10.5039" stroke="#030F26" stroke-linecap="round"/>
<path d="M140.764 1L129.583 11.063" stroke="#030F26" stroke-linecap="round"/>
<path d="M134.055 14.9763H143" stroke="#030F26" stroke-linecap="round"/>
<path d="M21.126 82.6221L20.0079 77.0315" stroke="#030F26" stroke-linecap="round"/>
<path d="M3.23622 86.5354L14.4173 76.4724" stroke="#030F26" stroke-linecap="round"/>
<path d="M9.94489 72.5591L1 72.5591" stroke="#030F26" stroke-linecap="round"/>
</svg>
