<svg width="89" height="24" viewBox="0 0 89 24" fill="none" xmlns="http://www.w3.org/2000/svg">
<path d="M9.216 18.336C12.024 18.336 14.712 16.848 15.912 14.328L13.056 12.72C12.312 14.112 11.016 15 9.072 15C6.36 15 4.44 12.864 4.44 9.936C4.44 7.008 6.384 4.872 9.072 4.872C11.016 4.872 12.264 5.76 13.056 7.152L15.912 5.544C14.712 3.024 12.024 1.536 9.216 1.536C4.512 1.536 0.84 5.256 0.84 9.936C0.84 14.616 4.512 18.336 9.216 18.336ZM23.5622 18.312C26.0822 18.312 28.0502 17.088 29.0822 14.952L26.4662 13.632C25.9142 14.736 24.8342 15.36 23.5382 15.36C21.8342 15.36 20.6102 14.304 20.3702 12.72H29.2022V11.712C29.2022 8.472 27.0182 5.688 23.2502 5.688C19.5782 5.688 17.0822 8.52 17.0822 11.952C17.0822 15.744 19.8662 18.312 23.5622 18.312ZM20.5142 10.824C20.7542 9.624 21.7382 8.664 23.2262 8.664C24.6662 8.664 25.6742 9.6 25.8182 10.824H20.5142ZM37.2418 23.784C41.1058 23.784 43.9858 21.048 43.9858 16.824V12.024C43.9858 8.448 41.2498 5.784 37.5298 5.784C33.8818 5.784 31.0978 8.592 31.0978 12.024C31.0978 15.552 33.7618 18.144 37.0978 18.144C38.7778 18.144 39.9298 17.52 40.5778 16.704V16.92C40.5778 19.248 39.2098 20.664 37.1938 20.664C35.5858 20.664 34.6018 19.848 34.0738 18.816L31.2418 20.352C32.3218 22.56 34.4578 23.784 37.2418 23.784ZM37.4818 14.928C35.8018 14.928 34.4578 13.656 34.4578 11.952C34.4578 10.248 35.8018 9 37.4818 9C39.1858 9 40.5298 10.248 40.5298 11.952C40.5298 13.656 39.1858 14.928 37.4818 14.928ZM52.1184 18.312C53.7504 18.312 55.0464 17.664 55.8864 16.608V18H59.1264V12.024C59.1264 8.448 56.3904 5.76 52.6704 5.76C49.0224 5.76 46.2384 8.616 46.2384 12.024C46.2384 15.48 48.6624 18.312 52.1184 18.312ZM52.6704 15.12C50.9184 15.12 49.6464 13.728 49.6464 12.048C49.6464 10.368 50.9184 8.976 52.6704 8.976C54.4224 8.976 55.7184 10.368 55.7184 12.048C55.7184 13.728 54.4224 15.12 52.6704 15.12ZM64.4511 18.264C65.6031 18.264 66.5391 17.304 66.5391 16.152C66.5391 15 65.6031 14.04 64.4511 14.04C63.2751 14.04 62.3391 15 62.3391 16.152C62.3391 17.304 63.2751 18.264 64.4511 18.264ZM73.8398 18V12.528H81.3758V9.312H73.8398V5.088H81.9278V1.848H73.4318C71.2238 1.848 70.3358 3.024 70.3358 4.872V18H73.8398ZM86.2178 4.344C87.3698 4.344 88.3058 3.408 88.3058 2.232C88.3058 1.08 87.3698 0.119998 86.2178 0.119998C85.0658 0.119998 84.1058 1.08 84.1058 2.232C84.1058 3.408 85.0658 4.344 86.2178 4.344ZM84.5138 6.12V18H87.9218V6.12H84.5138Z" fill="#030F26"/>
</svg>
